<svg width="155" height="48" viewBox="0 0 155 48" fill="none" xmlns="http://www.w3.org/2000/svg">
<rect width="155" height="48" rx="8" fill="#FF4D58"/>
<path d="M46 28.92V31.92C46.0011 32.1985 45.9441 32.4742 45.8325 32.7293C45.7209 32.9845 45.5573 33.2136 45.3521 33.4019C45.1469 33.5901 44.9046 33.7335 44.6407 33.8227C44.3769 33.9119 44.0974 33.9451 43.82 33.92C40.7428 33.5856 37.787 32.5341 35.19 30.85C32.7738 29.3147 30.7253 27.2662 29.19 24.85C27.5 22.2412 26.4482 19.271 26.12 16.18C26.095 15.9035 26.1279 15.6248 26.2165 15.3616C26.3051 15.0985 26.4476 14.8567 26.6348 14.6516C26.822 14.4466 27.0498 14.2827 27.3038 14.1705C27.5578 14.0583 27.8323 14.0003 28.11 14H31.11C31.5953 13.9952 32.0658 14.1671 32.4338 14.4835C32.8017 14.8 33.0421 15.2394 33.11 15.72C33.2366 16.6801 33.4714 17.6227 33.81 18.53C33.9445 18.8879 33.9737 19.2769 33.8939 19.6509C33.8141 20.0248 33.6289 20.3681 33.36 20.64L32.09 21.91C33.5135 24.4135 35.5864 26.4864 38.09 27.91L39.36 26.64C39.6319 26.3711 39.9751 26.1859 40.3491 26.1061C40.7231 26.0263 41.1121 26.0555 41.47 26.19C42.3773 26.5286 43.3199 26.7634 44.28 26.89C44.7658 26.9585 45.2094 27.2032 45.5265 27.5775C45.8437 27.9518 46.0122 28.4296 46 28.92Z" fill="white"/>
<path d="M70.32 29.16C73.04 29.16 74.992 27.768 75.328 25.016H73.248C73.024 26.632 71.904 27.432 70.32 27.432C68.208 27.432 66.976 25.912 66.976 23.336V23.208C66.976 20.648 68.288 19.08 70.304 19.08C71.952 19.08 72.8 19.864 73.04 21.384H75.2C74.944 18.696 72.912 17.384 70.288 17.384C67.104 17.384 64.736 19.784 64.736 23.224V23.352C64.736 26.872 66.736 29.16 70.32 29.16ZM79.2815 29.16C80.5615 29.16 81.2975 28.696 81.8415 27.976V29H83.7455V23.512C83.7455 21.224 82.2735 20.456 80.4015 20.456C78.5295 20.456 76.9775 21.272 76.8175 23.224H78.6895C78.7855 22.392 79.2815 21.912 80.2895 21.912C81.4255 21.912 81.8095 22.472 81.8095 23.592V24.024H80.7695C78.3695 24.024 76.4815 24.728 76.4815 26.68C76.4815 28.424 77.7455 29.16 79.2815 29.16ZM79.7455 27.768C78.7855 27.768 78.4015 27.304 78.4015 26.6C78.4015 25.576 79.3455 25.24 80.8175 25.24H81.8095V26.072C81.8095 27.144 80.9295 27.768 79.7455 27.768ZM86.0125 29H87.9485V16.76H86.0125V29ZM90.3563 29H92.2923V16.76H90.3563V29ZM98.6245 29H100.561V20.232L105.713 29H107.921V17.56H105.985V25.832L101.169 17.56H98.6245V29ZM114.052 27.656C112.58 27.656 111.732 26.584 111.732 24.872V24.744C111.732 23.016 112.612 21.976 114.052 21.976C115.492 21.976 116.356 23.032 116.356 24.76V24.872C116.356 26.584 115.492 27.656 114.052 27.656ZM114.036 29.16C116.5 29.16 118.34 27.464 118.34 24.856V24.728C118.34 22.168 116.5 20.456 114.052 20.456C111.588 20.456 109.748 22.184 109.748 24.776V24.904C109.748 27.448 111.572 29.16 114.036 29.16ZM121.583 29H123.567L125.263 23.368L126.815 29H128.783L131.407 20.632H129.519L127.775 26.68L126.143 20.632H124.527L122.751 26.68L121.087 20.632H119.023L121.583 29Z" fill="white"/>
</svg>
