<svg width="89" height="90" viewBox="0 0 89 90" fill="none" xmlns="http://www.w3.org/2000/svg">
<path d="M44.5 90C69.0767 90 89 69.8528 89 45C89 20.1472 69.0767 0 44.5 0C19.9233 0 0 20.1472 0 45C0 69.8528 19.9233 90 44.5 90Z" fill="#FFE6EE"/>
<mask id="mask0" mask-type="alpha" maskUnits="userSpaceOnUse" x="0" y="0" width="89" height="90">
<path d="M44.5 90C69.0767 90 89 69.8528 89 45C89 20.1472 69.0767 0 44.5 0C19.9233 0 0 20.1472 0 45C0 69.8528 19.9233 90 44.5 90Z" fill="#FFA6B9"/>
</mask>
<g mask="url(#mask0)">
<path d="M60.7822 6.34886C60.7822 6.41863 60.7822 6.4884 60.7822 6.55816C60.8519 6.55816 60.8519 6.41863 60.7822 6.34886Z" fill="#7777FF"/>
<path d="M71.338 11.721C71.338 11.2326 71.338 10.7442 71.2 10.2558C71.062 9.76748 70.786 9.34887 70.3031 9.13957C68.9233 9.34887 67.5434 9.69771 66.2326 9.69771C66.3015 9.34887 66.0946 9.13957 66.0256 8.79073C65.7496 8.72096 65.4046 8.72096 65.1287 8.72096C65.1287 8.6512 65.1287 8.58143 65.1287 8.51166C65.0597 7.95352 64.8527 7.53492 64.7837 7.04655C64.7837 6.83724 64.7147 6.55817 64.5767 6.41864C64.4388 6.34887 64.3008 6.2791 64.1628 6.2791C63.6798 6.20934 63.1969 6.20934 62.7829 6.2791C62.7829 6.00003 62.714 5.72096 62.645 5.44189C62.093 5.44189 61.4721 5.44189 60.8512 5.44189C60.8512 5.72096 60.7822 6.00003 60.7822 6.2791C60.8512 6.34887 60.8512 6.48841 60.7822 6.48841C60.7822 6.41864 60.7822 6.34887 60.7822 6.2791C60.1612 6.2791 59.3333 6.55817 58.7814 6.69771C58.6434 6.76748 58.4364 6.76748 58.3674 6.90701C58.2984 7.04655 58.2984 7.25585 58.2984 7.39538C58.2984 7.74422 58.3674 8.09306 58.3674 8.44189C57.8155 8.37213 57.1946 8.44189 56.7116 8.44189C56.6426 8.44189 56.6426 8.44189 56.5736 8.51166C56.5736 8.51166 56.5736 8.58143 56.5736 8.6512C56.5736 8.93027 56.6426 9.20934 56.8496 9.41864C56.9186 9.41864 56.9876 9.41864 57.0566 9.41864C57.0566 9.48841 56.9186 9.48841 56.8496 9.41864C54.7798 9.20934 52.5031 9.00003 50.7093 10.0465C50.0194 10.4652 49.3984 11.0233 48.8465 11.6512C48.2946 12.2791 47.7426 12.907 47.5356 13.7442C47.3287 14.5117 47.3977 15.2791 47.5356 16.0465L46.9837 16.7442C46.7077 17.0233 46.4318 17.3024 46.4318 17.6512C46.3628 18 46.6387 18.3489 46.9147 18.5582C47.1907 18.7675 47.6046 18.8372 47.9496 18.907C49.4674 19.1861 51.0543 19.2558 52.4341 18.6977C52.7791 18.5582 53.124 18.4186 53.262 18.0698C53.4 17.7907 53.4 17.5117 53.193 17.2326C53.055 17.0233 52.7791 16.814 52.5031 16.8838C52.4341 16.4652 52.5721 15.8372 52.8481 15.4884C53.124 15.1396 53.469 14.9303 53.8829 14.721C54.9178 14.3024 56.0217 14.3721 57.1256 14.5117C56.9876 14.5814 57.2636 14.7907 57.3326 14.9303C57.4015 15.0698 57.5395 15.0698 57.6775 15.1396C58.4364 15.2791 59.1953 15.1396 59.9543 15C61.6791 14.721 63.4039 14.6512 65.1287 14.7907C65.4736 14.7907 65.8876 14.8605 66.1636 14.721C66.4395 14.5814 66.6465 14.0931 66.3705 13.814C67.6814 13.6745 68.8543 13.4652 70.1651 13.3256C70.5101 13.2558 70.786 13.2558 71.131 13.3256C71.131 13.3256 71.131 13.3256 71.2 13.3256C71.476 12.907 71.269 12.3489 71.338 11.721Z" fill="#7777FF"/>
<path d="M56.9186 9.55817C56.8496 9.55817 56.7806 9.55817 56.7116 9.55817C56.7806 9.62793 56.9186 9.62793 56.9186 9.55817Z" fill="#7777FF"/>
<path d="M48.2256 19.0466C47.8806 18.7675 47.7426 18.2791 47.9496 17.8605C48.1566 17.4419 48.6395 17.2326 49.0535 17.3721C48.9845 15.9768 48.9845 14.4419 49.8124 13.2559C50.2263 12.628 50.9163 12.1396 51.6062 11.7907C53.124 11.0233 54.9178 10.7442 56.6426 11.0931C56.7116 10.8838 56.7806 10.6745 56.7806 10.4652C59.9543 10.3954 63.1279 10.2559 66.3015 10.0466C66.4395 10.6745 66.4395 11.3024 66.2326 11.8605C62.9899 11.8605 59.8163 11.9303 56.5736 11.9303C56.5046 12.2791 56.4357 12.628 56.4357 12.9768C55.4008 12.8373 54.3659 12.6977 53.331 12.8373C52.2961 12.9768 51.2612 13.4652 50.6403 14.3024C50.0884 15.1396 49.9504 16.1861 49.8814 17.1628C50.0884 17.0233 50.2953 16.9535 50.5023 17.0931C50.5713 17.721 50.5023 18.2791 50.4333 18.907L48.2256 19.0466Z" fill="#E1E1FF"/>
<path d="M43.2581 44.5814C43.3271 42.6279 42.6372 42.2791 41.8783 42.1396C40.2915 40.7442 40.0155 39.7675 41.2573 39.0698C42.4992 38.3023 44.086 39.6977 44.017 39.4884C43.948 39.2791 42.2232 37.7442 42.9132 36.6977C43.5341 35.721 48.1566 38.6512 48.1566 38.6512C48.1566 38.6512 47.5356 25.1163 47.4667 22.9535C47.3287 20.8605 46.9837 18.6279 46.9837 18.6279C46.9837 18.6279 49.0535 18.9768 50.5023 19.0465C51.9511 19.1163 52.5031 18.9768 52.5031 18.9768L53.469 36C53.469 36 55.2628 32.3721 57.1946 32.6512C59.1263 32.9303 58.0915 34.9535 58.0915 34.9535C58.0915 34.9535 59.1953 32.9303 61.1271 33.8372C63.0589 34.7442 60.7822 38.093 60.7822 38.093C60.7822 38.093 58.9884 36.4884 57.3325 37.814C56.6426 36.0698 53.676 35.5117 52.3651 37.2558C50.9853 39 51.7442 40.814 51.7442 40.814C51.7442 40.814 50.0884 40.7442 49.9504 41.721C48.3636 41.5116 46.9837 41.6512 46.2248 44.8605C44.431 43.814 43.2581 44.5814 43.2581 44.5814Z" fill="#7777FF"/>
<path d="M54.0899 35.5117C54.3659 35.0233 54.7798 34.6047 55.2628 34.2559C55.5388 34.1163 55.8147 33.9768 56.1597 34.0466C56.5046 34.2559 56.5736 34.7442 56.6426 35.1628C56.7116 35.4419 56.8496 35.7907 57.0566 36C57.2636 36.2093 57.6085 36.2791 57.8845 36.1396C58.2294 36 58.3674 35.5814 58.5054 35.3024C58.7814 34.7442 59.1953 34.1861 59.6783 33.7675C59.9543 33.4884 60.2992 33.2791 60.6442 33.3489C61.1961 33.4186 61.5411 34.1163 61.5411 34.6745C61.5411 35.721 60.9891 36.628 60.4372 37.4652C60.2992 37.1861 60.3682 36.8373 60.4372 36.5582C60.4372 36.2791 60.2992 35.8605 60.0232 35.7907C59.8163 35.721 59.6093 35.9303 59.4023 36.0698C58.7814 36.628 58.2294 37.3256 57.4015 37.6047C57.2636 37.6745 57.0566 37.6745 56.8496 37.6047C56.5736 37.5349 56.3667 37.2559 56.1597 36.9768C55.8837 36.6279 55.6077 36.3489 55.1938 36.1396C54.7798 35.9303 54.3659 35.8605 53.9519 36.0698C53.8829 36.1396 53.538 36.2093 53.4 36.2093L54.0899 35.5117Z" fill="#E1E1FF"/>
<path d="M50.2263 19.1861C50.2263 19.3954 50.3643 30.2791 50.7783 28.814C51.1922 27.3489 51.3302 18.8373 51.3302 18.8373L50.2263 19.1861Z" fill="#E1E1FF"/>
<path d="M48.3635 19.3256C48.3635 19.3256 49.1225 31.9535 49.2605 35.2326C49.3984 38.5117 50.2263 33.3489 50.3643 31.1163C50.5023 28.9535 50.9163 40.7442 50.9163 40.7442C50.9163 40.7442 49.8124 40.8837 49.6054 41.9303C48.4325 41.721 48.4325 41.721 48.4325 41.721L46.9837 19.0465L48.3635 19.3256Z" fill="#E1E1FF"/>
<path d="M32.4264 55.6745C32.4264 55.6745 37.7388 53.721 40.4985 52.0465C43.2581 50.3721 53.676 42.7675 55.4698 41.5814C57.1946 40.4652 58.9194 39.4186 60.0923 40.5349C61.1961 41.6512 60.1612 42.907 58.9884 44.0233C57.7465 45.1396 49.8124 52.4652 49.8124 52.4652C49.8124 52.4652 54.0899 49.8838 56.6426 48.4186C59.2643 46.9535 63.6799 43.8838 64.6457 43.3256C65.6116 42.7675 65.5426 42.907 65.5426 42.907C65.5426 42.907 65.6116 41.4419 64.3008 41.6512C62.9899 41.8605 62.231 42 62.231 42C62.231 42 62.438 35.8605 57.3326 37.6745C55.9527 35.0931 53.193 36.1396 52.3651 37.2559C51.6062 38.3721 51.3992 40.6047 51.3992 40.6047C51.3992 40.6047 50.2954 40.814 49.8814 41.5814C48.9845 41.5117 46.9837 42.3489 46.5698 43.2559C46.1558 44.1628 46.2248 44.5117 46.2248 44.5117C46.2248 44.5117 43.9481 43.9535 43.2581 44.5814C42.8442 46.7442 40.0155 49.3954 37.3938 50.5814C34.7721 51.6977 32.4264 55.1861 32.4264 55.6745Z" fill="white"/>
<path d="M51.3302 59.6512C51.3302 59.6512 56.6426 56.5117 61.6101 53.4419C66.6465 50.4419 67.1294 49.7442 67.1984 49.6047C67.2674 49.4652 67.2674 47.3721 65.9566 47.3024C61.4031 51.0698 50.4333 59.721 50.4333 59.721L51.3302 59.6512Z" fill="#E1E1FF"/>
<path d="M59.8163 43.1861C59.8853 43.0465 63.1279 41.721 64.2318 41.721C65.3357 41.721 65.4736 42.6279 65.4736 42.6279C65.4736 42.6279 57.1946 48 56.3667 48.6977C55.4698 49.3256 50.2953 52.2558 50.2953 52.0465C50.3643 51.907 59.8163 43.1861 59.8163 43.1861Z" fill="#E1E1FF"/>
<path d="M42.7752 45.6977C44.845 45.1396 46.2248 46.3256 46.2248 46.3256C46.4318 44.5117 49.8124 43.7442 49.8124 43.7442C49.7434 42.2791 52.7101 42.1396 52.7101 42.1396C53.055 38.5117 56.0217 37.7442 56.8496 38.7907C55.4698 40.2558 55.4698 40.6047 55.4698 40.6047C55.4698 40.6047 57.2636 38.5117 59.2643 39C61.1961 39.4884 62.369 41.1628 62.3 41.721C62.231 42.2791 62.024 42.2791 62.024 42.2791L60.2992 42.8372C60.2992 42.8372 61.1961 41.0233 59.5403 40.3256C57.9535 39.6977 57.4015 40.7442 55.1248 42.1396C52.8481 43.5349 43.3961 50.0233 42.4992 50.6512C41.6023 51.2093 37.6008 54.2093 36.2209 54.6977C34.8411 55.1861 32.2194 56.1628 32.2194 56.1628C32.2194 56.1628 32.8403 53.7907 34.8411 52.5349C36.8419 51.2791 40.9814 49.3954 41.6023 48.3489C42.2922 47.3024 42.7752 45.6977 42.7752 45.6977Z" fill="#E1E1FF"/>
<path d="M6.27829 70.6047C18.2139 63.4884 22.6295 55.5349 24.9752 52.5349C27.3209 49.5349 36.3589 46.1861 37.9457 44.8605C39.5326 43.5349 41.8783 42.4187 42.4302 42.2791C43.0512 42.2093 44.086 42.6977 43.4651 44.6512C42.8442 46.6047 39.8085 49.814 37.0488 51.2094C34.2891 52.6047 32.6333 53.8605 32.2884 56.0233C35.6 54.7675 41.3264 51.4884 43.8101 49.5349C46.3628 47.5814 53.8139 43.3256 54.9868 41.7907C56.2287 40.3256 59.6783 39.0698 60.3682 40.3954C61.0581 41.721 59.8163 44.0233 56.4357 46.2559C53.055 48.5582 49.6744 52.3954 49.6744 52.3954C49.6744 52.3954 55.3318 49.6047 57.2636 48.0698C59.1953 46.6047 64.9907 41.721 67.5434 42.907C68.6473 43.4652 66.9915 46.6047 65.6116 47.5814C64.2318 48.5582 54.6419 56.3024 54.0899 56.8605C53.469 57.4884 50.0194 59.9303 50.0194 59.9303C50.0194 59.9303 54.1589 58.4652 57.6085 56.2326C60.9891 54.0698 64.7147 50.721 65.8876 50.0931C66.9915 49.4652 69.6822 49.1163 68.9233 51.5582C68.1643 54 64.2318 58.1163 62.093 59.721C59.9543 61.3256 54.5039 65.1628 53.124 66.1396C51.7442 67.1163 51.1232 67.8838 51.1232 67.8838C51.1232 67.8838 55.1248 66.2094 57.1256 64.5349C59.1264 62.8605 63.2659 60.6977 64.7147 61.0466C66.0946 61.3954 66.0256 62.3024 64.3698 63.7675C62.7139 65.2326 59.3333 68.2326 57.1256 69.4884C54.9868 70.7442 45.8108 76.8838 39.9465 77.8605C34.0132 78.8373 23.4574 80.2326 21.2496 81.5582C19.1108 82.8838 16.9031 84.1396 16.9031 84.1396L6.27829 70.6047Z" fill="white"/>
<path d="M59.4023 40.3256C60.2992 42.3489 51.6062 48.2093 49.6744 49.4652C47.7426 50.721 42.9132 54.9768 43.6721 55.6047C44.431 56.2326 46.0868 54.9768 46.0868 54.9768C46.0868 54.9768 57.2636 46.0466 58.7124 44.6512C60.0922 43.2559 62.231 40.8838 59.4023 40.3256Z" fill="#E1E1FF"/>
<path d="M66.1636 42.6279C66.8535 43.5349 65.4736 45.2791 62.9209 47.4419C60.3682 49.6047 49.2605 57.5582 47.9496 58.6047C46.6388 59.6512 46.6388 61.9535 49.9504 60.0698C53.331 58.2558 64.1628 49.5349 65.6116 47.721C67.1295 45.8372 69.8892 44.093 66.1636 42.6279Z" fill="#E1E1FF"/>
<path d="M67.8884 49.7442C67.9574 51.3489 61.886 57.907 58.1605 59.8605C54.4349 61.814 48.7775 66.2791 48.0876 67.3954C47.3977 68.5117 49.8814 68.0931 52.4341 66.6279C54.9868 65.1628 62.438 59.7907 63.7488 58.2559C64.9907 56.7907 70.5101 51.628 67.8884 49.7442Z" fill="#E1E1FF"/>
<path d="M64.5767 61.2558C64.5077 62.2326 54.6418 69.7675 48.4325 72.3489C42.1542 74.9303 29.5977 74.7907 24.0093 75.6977C18.4209 76.6047 8.14107 83.3721 8.14107 83.3721L12.2806 86.1628C12.2806 86.1628 23.4573 79.7442 29.2527 79.4651C34.9791 79.1861 42.5682 78.8372 51.6062 73.1163C60.6442 67.3954 65.1287 63.8372 65.6116 62.6512C65.9566 61.4651 64.5767 61.2558 64.5767 61.2558Z" fill="#E1E1FF"/>
<path d="M34.2202 55.2558C34.2202 55.2558 28.2868 58.3954 28.2868 58.1861C28.2868 57.9768 29.2527 53.721 32.6333 51.1396C36.014 48.5582 42.4302 45.6279 43.1202 42.9768C43.3271 46.1163 40.5674 48.7675 38.2217 50.093C35.945 51.4186 31.5984 54.2791 34.2202 55.2558Z" fill="#E1E1FF"/>
<path d="M4.55348 66.6977C11.4527 62.3721 17.938 57.8373 20.0077 54.2094C22.0775 50.5814 22.6984 49.4652 25.5961 48.0001C28.4938 46.5349 39.5325 40.0466 40.0155 40.3256C40.4294 40.5349 39.7395 43.6047 39.5325 43.6047C39.2566 43.6047 30.0806 47.3024 27.6659 50.4419C25.2512 53.5814 22.9744 56.2326 19.9388 59.3721C16.9031 62.5117 7.45116 70.3256 7.45116 70.3256L4.55348 66.6977Z" fill="#E1E1FF"/>
<path d="M67.6124 49.1163C67.5434 49.1163 67.5434 49.1163 67.4744 49.1163C67.4744 48.8373 67.3364 48.5582 67.2674 48.3489C67.1294 48.0001 66.8535 47.721 66.5775 47.5117C66.8535 47.2326 67.1294 46.9535 67.3364 46.6047C67.8884 45.8373 68.4403 44.7907 68.2333 43.814C67.9574 42.628 66.7155 42.2791 65.6806 42.4187C65.6806 42.4187 65.6806 42.4187 65.6116 42.4187C65.6116 42.3489 65.6116 42.3489 65.6116 42.2791C65.4736 41.721 64.9217 41.5117 64.4387 41.5117C63.8178 41.5117 63.1279 41.6512 62.507 41.7908C62.438 41.7908 62.438 41.7908 62.438 41.7908C62.438 40.3954 62.162 38.8605 61.1961 37.814C61.4031 37.6745 61.6101 37.4652 61.748 37.2559C62.024 36.907 62.231 36.4884 62.369 36.0001C62.576 35.2326 62.507 34.3954 62.024 33.7675C61.5411 33.0698 60.6442 32.9303 59.8853 33.1396C59.4023 33.2791 58.9884 33.5582 58.6434 33.907C58.6434 33.628 58.6434 33.4187 58.5054 33.2094C58.2984 32.5117 57.6085 32.0931 56.9186 32.2326C56.0907 32.3024 55.4008 32.8605 54.8488 33.4187C54.2969 33.9768 53.9519 34.6047 53.745 35.3024C53.607 32.9303 53.469 30.4884 53.331 28.1163C53.262 26.721 53.193 25.3256 53.055 23.8605C52.917 22.5349 52.986 21.0001 52.5721 19.7442C52.5031 19.5349 52.1581 19.5349 52.1581 19.7442C51.8822 21.0001 52.0891 22.3954 52.1581 23.721C52.2271 25.1861 52.2961 26.6512 52.3651 28.1163C52.5031 30.907 52.6411 33.6977 52.848 36.4884C51.6062 37.3256 51.1232 38.9303 51.2612 40.3954C50.5023 40.3954 49.8814 40.8838 49.5364 41.4419C49.2605 41.3024 48.9155 41.3721 48.7085 41.3721C48.7085 41.3024 48.7085 41.3024 48.7085 41.2326C48.5015 39.5582 48.5705 37.814 48.5015 36.0698C48.5015 34.1861 48.4325 32.3024 48.2946 30.4187C48.2256 28.6047 48.0876 26.721 47.9496 24.907C47.8116 23.2326 47.8116 21.2094 47.2597 19.5349C47.2597 19.4652 47.0527 19.3954 47.0527 19.5349C46.9147 20.3721 47.0527 21.2791 47.0527 22.1163C47.1217 23.1628 47.1907 24.1396 47.2597 25.1861C47.3977 27.2094 47.4667 29.1628 47.5356 31.1861C47.6046 33.1396 47.6046 35.0931 47.6046 37.0466C47.6046 37.3954 47.6046 37.814 47.6046 38.1628C47.0527 37.6745 46.4318 37.2559 45.7418 36.8373C45.0519 36.4884 44.224 36.0001 43.4651 36.0001C42.7062 36.0698 42.2232 36.628 42.3612 37.3954C42.4302 37.7442 42.7062 38.0931 42.9132 38.3721C42.9822 38.4419 43.0511 38.5117 43.1201 38.5814C42.7752 38.4419 42.3612 38.3721 41.9473 38.3721C41.3263 38.3721 40.6364 38.721 40.2915 39.2791C40.2225 39.4187 40.1535 39.4884 40.1535 39.628C39.8775 39.4884 39.4636 39.5582 39.0496 39.6977C36.7729 40.4652 34.7031 41.8605 32.6333 43.0466C30.2876 44.4419 27.9418 45.907 25.6651 47.4419C25.0442 47.8605 24.4232 48.2791 23.8713 48.6977C22.0085 50.2326 20.5597 52.3256 19.1108 54.2094C17.317 56.4419 15.2473 58.3954 13.0395 60.2094C11.8667 61.1163 10.6248 62.0233 9.45193 62.9303C8.41704 63.6977 7.0372 64.3256 6.20929 65.3721C6.1403 65.4419 6.20929 65.6512 6.34727 65.5814C7.31317 65.3024 8.21007 64.6047 9.03797 64.0466C10.0729 63.3489 11.1077 62.6512 12.0736 61.9535C13.8674 60.6977 15.5232 59.3024 17.1101 57.8373C18.7659 56.2326 20.1457 54.4187 21.5946 52.6745C22.5605 51.4884 23.7333 50.0931 24.9062 49.2559C28.6318 46.5349 32.7023 44.0931 36.7729 41.9303C37.6008 41.4419 38.4977 40.9535 39.4636 40.6745C39.5325 40.6745 39.6705 40.6047 39.8085 40.6047C39.8085 40.6745 39.8085 40.7442 39.8775 40.8838C39.8085 41.7907 39.3256 42.8373 38.4977 43.2559C38.2907 43.3256 38.2907 43.5349 38.2907 43.6745C36.0139 44.9303 33.5302 45.8373 31.3225 47.2326C29.1147 48.5582 27.0449 50.1628 25.1822 51.907C23.1814 53.7908 21.6636 55.9535 20.0077 58.1163C18.2139 60.628 16.2132 62.7908 13.8674 64.814C11.5217 66.8373 8.89999 68.6512 6.34727 70.4652C5.93332 70.7442 6.27828 71.3721 6.76123 71.1628C10.9008 68.5117 15.1093 65.721 18.3519 62.0233C20.0767 60.0698 21.4566 57.8373 23.1124 55.7442C24.6992 53.7908 26.493 52.0466 28.4938 50.5117C30.4946 48.9768 32.6333 47.6512 34.9101 46.6047C37.1178 45.5582 39.1876 44.5117 41.1884 43.1163C41.7403 42.6977 42.5682 42.2791 42.8442 43.1861C42.9822 43.6047 42.9132 44.1628 42.7752 44.5814C42.5682 45.3489 42.2922 45.9768 41.8093 46.6047C40.9124 47.8605 39.6015 48.6977 38.2907 49.5349C35.531 51.2094 32.3574 52.814 31.7364 56.3024C31.5984 57.0001 32.4953 57.2094 32.7713 56.5814C32.7023 56.7907 32.8403 56.5814 32.9783 56.5117C33.1163 56.4419 33.2542 56.3024 33.4612 56.2326C33.9442 55.9535 34.4961 55.6745 34.9791 55.4652C35.876 55.0466 36.8418 54.628 37.7387 54.1396C39.1876 53.4419 40.4984 52.3954 41.8783 51.4884C43.5341 50.3721 45.1899 49.3256 46.8457 48.2791C48.5705 47.2326 50.2263 46.1861 51.8822 45.0001C53.4 43.9535 54.7108 42.7675 56.1597 41.721C56.8496 41.2326 57.6085 40.7442 58.5054 40.5349C59.6093 40.2559 60.8511 40.8838 60.1612 42.2094C59.7473 43.0466 58.9194 43.6745 58.2294 44.3024C57.5395 45.0001 56.7806 45.6977 56.0217 46.3256C52.7101 49.2559 49.1915 51.907 45.7418 54.7675C45.2589 55.1861 45.9488 55.814 46.4318 55.4652C48.8465 53.5117 51.8132 52.1861 54.5039 50.5814C57.4705 48.8373 60.1612 46.6047 62.9899 44.7907C63.7488 44.3024 64.5077 43.7442 65.3356 43.4652C65.8876 43.2559 66.9915 43.1163 67.3364 43.814C67.6814 44.5814 66.9225 45.6977 66.4395 46.2559C65.3356 47.4419 63.9558 48.4884 62.7139 49.5349C61.4031 50.6512 60.0232 51.7675 58.6434 52.814C55.4008 55.3954 52.0891 57.7675 48.7775 60.2094C48.3635 60.5582 48.5705 61.2559 49.1915 61.1163C55.1938 59.4419 60.0232 55.2559 64.9907 51.628C65.5426 51.2094 66.1636 50.721 66.7155 50.3721C67.2674 50.0233 68.1643 50.0233 68.2333 50.8605C68.3023 51.4187 68.0263 51.907 67.7504 52.3256C66.9915 53.721 66.0256 54.9768 64.9217 56.0931C62.7829 58.3954 60.2302 60.3489 57.6775 62.2326C55.1938 64.1163 52.0891 65.3721 50.0884 67.8838C49.7434 68.3024 50.1574 69.0698 50.7093 68.721C51.0543 68.4419 51.6062 68.3721 52.0201 68.1628C52.7101 67.8838 53.4 67.6047 54.0899 67.2559C54.9868 66.8373 55.7457 66.2791 56.5046 65.721C57.6775 64.9535 58.8504 64.1861 60.0232 63.4187C61.1271 62.721 62.3 61.9535 63.6108 61.7442C63.8868 61.6745 64.3008 61.6047 64.5767 61.7442C65.0597 61.9535 64.8527 62.3721 64.5767 62.721C64.1628 63.1396 63.6798 63.4884 63.1969 63.907C61.1961 65.5117 59.1953 67.1163 57.1256 68.5814C53.055 71.5117 48.7775 74.1628 44.086 75.907C41.7403 76.814 39.3256 77.4419 36.8418 77.8605C34.1512 78.2791 31.4605 78.2791 28.7698 78.7675C22.8364 79.814 16.9721 82.4652 11.7977 85.5349C11.1767 85.8838 11.7287 86.9303 12.3496 86.5117C17.386 83.5117 23.0434 80.9303 28.9077 79.8838C31.8744 79.3256 34.9101 79.3954 37.8767 78.8373C40.4984 78.3489 43.1201 77.5117 45.6039 76.5349C50.5713 74.4419 55.0558 71.5117 59.3333 68.3024C60.3682 67.5349 61.4721 66.6977 62.507 65.8605C63.4729 65.0931 64.6457 64.3256 65.4736 63.4187C66.0946 62.721 66.3015 61.6047 65.5426 60.9768C64.7147 60.2791 63.3349 60.5582 62.438 60.907C60.9891 61.3954 59.7473 62.3024 58.5054 63.0698C57.0566 64.0466 55.6077 65.0233 54.1589 65.9303C53.7449 66.2094 53.331 66.3489 52.848 66.5582C54.6418 65.1628 56.8496 64.0466 58.6434 62.721C61.3341 60.6977 64.0938 58.6047 66.3015 56.0233C67.3364 54.8373 68.5093 53.3721 69.0612 51.907C69.4062 50.9303 69.0612 49.2559 67.6124 49.1163ZM54.1589 35.5814C54.5729 34.5349 55.4698 33.4187 56.5736 33.0001C57.1256 32.7908 57.6775 32.8605 57.8155 33.5582C57.8845 34.0466 57.8155 34.5349 57.6775 35.0233C57.5395 35.3721 58.0915 35.721 58.3674 35.4419C58.7814 34.9535 59.2643 34.3954 59.8163 34.1163C60.3682 33.8373 61.1271 33.8373 61.4721 34.4652C61.748 34.9535 61.6791 35.6512 61.4031 36.1396C61.1961 36.4884 60.7822 36.9768 60.6442 37.3954C59.6783 36.7675 58.2984 36.628 57.3325 37.2559C56.5736 36.0698 55.0558 35.5814 53.676 35.9303C53.676 35.8605 53.676 35.7908 53.676 35.721C53.8139 35.8605 54.0899 35.7908 54.1589 35.5814ZM40.7054 41.721C40.8434 41.7907 40.9124 41.9303 41.0504 42.0001C40.9124 42.0698 40.7054 42.1396 40.5674 42.2791C40.5674 42.0698 40.6364 41.9303 40.7054 41.721ZM42.2922 41.6512L42.2232 41.5814C41.8093 41.3721 41.3953 41.2326 41.1194 40.8838C40.8434 40.5349 40.7744 40.1163 41.0504 39.7675C41.7403 38.9303 42.9822 39.4884 43.8101 39.8373C44.155 39.9768 44.431 39.7675 44.362 39.4187C44.293 38.7908 43.7411 38.3721 43.3961 37.8838C43.1891 37.6745 42.9822 37.2559 43.1201 36.9768C43.2581 36.6977 43.6031 36.7675 43.8791 36.7675C44.569 36.907 45.1899 37.2559 45.8108 37.6047C46.4318 37.9535 47.0527 38.3721 47.6736 38.7907C47.6736 39.2094 47.6736 39.628 47.6736 40.1163C47.6736 40.6047 47.6736 41.1628 48.0186 41.4419C47.5356 41.6512 47.0527 41.9303 46.7077 42.3489C46.2938 42.8373 46.0178 43.3954 45.9488 43.9535C45.4659 43.9535 45.1899 43.8838 44.8449 43.9535C44.5 43.9535 44.155 44.0931 43.8791 44.3024C43.948 43.6745 43.8791 43.0466 43.6031 42.5582C43.2581 41.9303 42.7752 41.6512 42.2922 41.6512ZM59.1953 39.628C57.4705 39.4884 55.9527 40.7442 54.6418 41.7908C52.848 43.2559 50.9163 44.6512 48.9155 45.907C47.0527 47.0931 45.1209 48.2791 43.2581 49.4652C41.3263 50.6512 39.5325 52.0466 37.5318 53.1628C36.4279 53.7907 35.255 54.2094 34.1511 54.7675C33.8752 54.907 33.5302 55.0466 33.1853 55.1861C34.4271 52.8838 37.1178 51.628 39.2566 50.3024C40.5674 49.4652 41.8093 48.5582 42.6372 47.3024C43.1201 46.6047 43.5341 45.6977 43.7411 44.7907C44.086 44.7907 44.431 44.6512 44.776 44.6512C45.1899 44.6512 45.5349 44.7907 45.8108 45.0698C46.0868 45.2791 46.5008 45.1396 46.5008 44.7907C46.5008 44.0931 46.7767 43.4652 47.2597 42.9768C47.5356 42.7675 47.8116 42.5582 48.1566 42.4187C48.5015 42.2791 48.7775 42.3489 49.1225 42.3489C49.1225 42.7675 49.1915 43.1163 49.4674 43.5349C49.3984 43.6047 49.2605 43.6745 49.1915 43.7442C48.6395 44.1628 48.3636 45.0001 48.7085 45.628C48.9155 45.907 49.3294 45.6977 49.1915 45.3489C49.0535 45.1396 49.1225 44.9303 49.1915 44.721C49.2605 44.5117 49.4674 44.3024 49.6054 44.1628C50.1574 43.814 50.8473 43.814 51.4682 43.8838C51.6062 43.8838 51.7442 43.7442 51.8132 43.6047C51.8822 43.1163 51.2612 43.1861 50.9853 43.1861C50.7783 43.1861 50.5713 43.1861 50.3643 43.2559C50.2953 43.2559 50.2263 43.2559 50.1573 43.3256C49.4674 42.3489 50.2953 41.0233 51.4682 41.3024C51.7442 41.3721 52.0201 41.0931 51.9512 40.814C51.6752 39.4187 52.1581 37.6745 53.538 37.0466C54.7798 36.4884 56.2977 36.9768 56.8496 38.2326C56.9876 38.5117 57.3325 38.5117 57.4705 38.3024C58.3674 37.3954 59.8853 37.7442 60.7132 38.5814C61.6101 39.5582 61.7481 40.8838 61.6791 42.2094C61.4031 42.2791 61.1961 42.4187 60.9201 42.5582C61.5411 40.9535 60.5752 39.6977 59.1953 39.628ZM60.7822 45.0698C59.1263 46.1861 57.5395 47.3721 55.8837 48.5582C54.7108 49.3256 53.469 50.0233 52.2271 50.721C53.7449 49.4652 55.3318 48.2094 56.7806 46.8838C57.5395 46.1861 58.3674 45.4884 59.0574 44.721C59.4713 44.3024 59.8853 43.8838 60.2992 43.4652C60.4372 43.3954 60.5752 43.3256 60.7132 43.2559C61.0581 43.1163 61.4031 42.9768 61.748 42.8373C61.886 43.0466 62.369 42.9768 62.438 42.628C62.9209 42.4884 63.4039 42.3489 63.9558 42.2791C64.1628 42.2791 64.9217 42.0698 64.9907 42.4187C64.9907 42.4884 64.9907 42.4884 65.0597 42.4884C64.5077 42.6977 64.0248 42.9768 63.5418 43.2559C62.507 43.814 61.6101 44.4419 60.7822 45.0698ZM65.6116 49.8838C64.9217 50.3721 64.1628 50.9303 63.4729 51.4884C62.093 52.5349 60.7132 53.5814 59.2643 54.628C56.9876 56.3024 54.6418 57.907 52.0201 59.0233C54.3659 57.2791 56.7116 55.5349 58.9884 53.721C60.5752 52.4652 62.162 51.2094 63.6798 49.8838C64.4387 49.1861 65.3356 48.5582 66.1636 47.8605C66.2325 47.9303 66.3705 48.0001 66.4395 48.1396L66.5085 48.2094L66.5775 48.3489L66.6465 48.4884V48.5582C66.7155 48.628 66.7155 48.7675 66.7155 48.8373V48.9768V49.0466V49.1163C66.7155 49.1861 66.7155 49.1861 66.7155 49.2559C66.3705 49.3256 66.0256 49.6047 65.6116 49.8838Z" fill="#372B7B"/>
<path d="M71.131 13.1861C70.786 12.9768 70.3031 13.1163 69.9581 13.1163C69.5442 13.1163 69.1992 13.1163 68.7853 13.1163C68.4403 13.1163 68.0264 13.1163 67.6814 13.1163C67.3364 13.1163 67.0605 13.1861 66.7845 13.1861C66.8535 12.0698 66.8535 10.9535 66.7845 9.90701C66.9915 9.90701 67.1295 9.90701 67.3364 9.90701C67.6814 9.90701 68.0264 9.90701 68.3713 9.83724C69.0612 9.83724 69.8202 9.83724 70.5101 9.69771C70.7171 9.69771 70.855 9.55817 70.855 9.34887C70.855 9.13957 70.7171 9.00003 70.5101 9.00003C69.7512 9.00003 69.0612 9.13957 68.3023 9.20934C67.9574 9.20934 67.6124 9.2791 67.2674 9.2791C67.0605 9.2791 66.9225 9.34887 66.7845 9.34887C66.7845 9.13957 66.7845 8.93027 66.7845 8.72096C66.7845 8.44189 66.5775 8.16282 66.2326 8.16282C65.8876 8.16282 65.5426 8.16282 65.1977 8.16282C65.1977 8.02329 65.1977 7.95352 65.1977 7.81399C65.1977 7.67445 65.1977 7.46515 65.1287 7.32562C65.0597 7.04655 65.0597 6.76748 64.9907 6.48841C64.9907 6.41864 64.8527 6.34887 64.7837 6.34887C64.7147 6.34887 64.6457 6.41864 64.6457 6.41864C64.2318 6.13957 63.7488 6.13957 63.2659 6.0698C63.1279 6.0698 62.9209 6.0698 62.7829 6.0698C62.7829 5.93027 62.7829 5.72096 62.7829 5.58143V5.51166C62.576 5.51166 62.438 5.51166 62.231 5.51166V5.58143C62.231 5.72096 62.231 5.93027 62.231 6.0698C62.024 6.0698 61.8171 6.0698 61.6101 6.0698C61.5411 6.0698 61.4721 6.0698 61.4031 6.0698C61.4031 5.8605 61.4031 5.6512 61.4031 5.44189C61.1961 5.44189 60.9891 5.44189 60.7822 5.44189C60.7822 5.6512 60.7822 5.93027 60.7822 6.13957C60.5062 6.2791 60.2302 6.2791 60.0233 6.34887C59.7473 6.41864 59.4713 6.48841 59.2643 6.55817C58.9884 6.62794 58.8504 6.69771 58.7124 6.90701C58.5744 6.83724 58.3674 6.90701 58.2295 6.97678C58.0915 7.11631 58.0915 7.32562 58.0225 7.46515C58.0225 7.53492 58.0225 7.67445 58.0225 7.74422C58.0225 7.95352 58.0915 8.09306 58.1605 8.23259C57.6775 8.23259 57.1946 8.30236 56.7116 8.37213C56.5047 8.37213 56.4357 8.58143 56.5047 8.72096C56.4357 8.93027 56.3667 9.20934 56.3667 9.41864C56.3667 9.34887 56.2977 9.34887 56.2287 9.34887C53.8829 8.93027 51.1233 9.20934 49.1915 10.814C48.3636 11.5117 47.6047 12.4186 47.1907 13.4651C46.7767 14.4419 46.5698 15.6279 46.9837 16.6047C46.9147 16.6047 46.7767 16.6047 46.7078 16.6047C46.2248 16.5349 46.0178 17.1628 46.2938 17.3721C45.8798 18 46.3628 18.8372 46.9837 19.1163C47.3977 19.3256 47.8806 19.3256 48.3636 19.3954C48.5705 19.3954 48.7775 19.3954 49.0535 19.4651C48.9845 22.9535 49.1225 26.5117 49.3984 30.0698C49.3984 30.3489 49.8814 30.4186 49.8814 30.0698C49.7434 26.5117 49.8124 23.0233 49.9504 19.4651C50.8473 19.5349 52.0202 19.7442 52.7791 19.1861C53.469 18.6977 53.814 17.5814 53.124 17.0233C53.055 16.9535 52.986 16.9535 52.8481 16.9535C52.5031 16.3954 52.8481 15.6279 53.331 15.3489C53.676 15.0698 54.1589 15 54.6419 15C54.9178 15 55.1248 15 55.4008 15.0698C55.5388 15.0698 55.6078 15.0698 55.7457 15.1396C55.8147 15.1396 55.8837 15.1396 55.9527 15.1396C56.0217 15.1396 56.1597 15.1396 56.2287 15.0698C56.3667 15.0698 56.4357 15 56.4357 14.8605C56.4357 14.8605 56.4357 14.8605 56.4357 14.9303C56.4357 14.9303 56.4357 14.9303 56.3667 14.9303C56.2287 15.0698 56.2287 15.2791 56.3667 15.4186C56.8496 15.907 57.8845 15.6279 58.5054 15.6279C59.3333 15.6279 60.2302 15.5582 61.0581 15.5582C62.714 15.4884 64.3698 15.4186 66.0946 15.4186C66.3705 15.4186 66.5775 15.2093 66.6465 14.8605C66.6465 14.6512 66.6465 14.4419 66.6465 14.1628C66.9225 14.2326 67.2674 14.2326 67.5434 14.2326C67.9574 14.2326 68.3023 14.2326 68.7163 14.2326C69.0612 14.2326 69.4752 14.2326 69.8202 14.2326C70.2341 14.2326 70.7171 14.3024 71.062 14.1628C71.476 13.9535 71.476 13.3954 71.131 13.1861ZM52.0202 18.3489C51.3992 18.5582 50.6403 18.4186 50.0884 18.4186C49.3984 18.4186 48.6395 18.4186 47.9496 18.3489C47.6736 18.3489 47.3287 18.3489 47.1217 18.1396C46.9837 18 46.8457 17.721 46.9837 17.5814C46.9837 17.5117 47.0527 17.5117 47.0527 17.4419C48.8465 17.7907 50.7093 17.7907 52.4341 17.4419C52.4341 17.4419 52.4341 17.4419 52.4341 17.5117C52.6411 17.8605 52.3651 18.2791 52.0202 18.3489ZM56.3667 14.2326C56.2977 14.1628 56.2287 14.1628 56.0907 14.0931C56.0217 14.0931 55.8837 14.0931 55.8147 14.0931C55.6767 14.0931 55.5388 14.0931 55.3318 14.0233C55.0558 14.0233 54.7109 14.0233 54.4349 14.0233C53.8829 14.0931 53.262 14.3024 52.8481 14.721C52.4341 15.1396 52.1581 15.8372 52.2271 16.3954C50.7093 16.6745 49.2605 16.7442 47.7426 16.6047C47.8116 16.5349 47.8116 16.4651 47.8116 16.3954C47.7426 15.907 47.6736 15.4884 47.7426 15C47.8116 14.5117 47.9496 14.0931 48.0876 13.6745C48.5015 12.7675 49.1225 12 49.8814 11.3721C51.6752 9.97678 53.9519 9.83724 56.1597 9.76748C56.2287 9.76748 56.2287 9.76748 56.2977 9.69771C56.1597 10.3954 56.1597 11.0931 56.1597 11.7907C56.1597 12.3489 56.2287 12.907 56.2977 13.3954C56.2977 13.7442 56.3667 14.0233 56.3667 14.2326C56.3667 14.2326 56.3667 14.3024 56.3667 14.2326ZM58.8504 7.46515C58.8504 7.39538 58.9194 7.32561 58.9194 7.25585C59.0574 7.25585 59.1954 7.25585 59.3333 7.25585C59.6093 7.18608 59.8163 7.18608 60.0922 7.11631C60.5752 7.04655 61.1271 7.04655 61.6791 7.04655C62.162 7.04655 62.714 7.04655 63.1969 7.11631C63.6798 7.18608 64.1628 7.25585 64.5767 7.18608C64.5767 7.25585 64.5767 7.32562 64.5767 7.46515C64.5767 7.60468 64.5078 7.81399 64.5078 7.95352C64.5078 8.09306 64.5078 8.16282 64.5078 8.30236C63.4729 8.30236 62.507 8.30236 61.4721 8.30236C60.6442 8.30236 59.7473 8.30236 58.9194 8.30236C58.9194 8.23259 58.9194 8.23259 58.9194 8.23259C58.9194 8.16282 58.8504 8.09306 58.8504 8.02329C58.8504 7.95352 58.8504 7.88375 58.8504 7.81399C58.7814 7.60468 58.8504 7.53492 58.8504 7.46515ZM65.6806 14.2326C64.1628 14.3024 62.645 14.3721 61.1961 14.3721C60.3682 14.3721 59.5403 14.4419 58.7124 14.4419C58.2984 14.4419 57.8845 14.4419 57.5395 14.5117C57.4705 14.0931 57.4016 13.7442 57.3326 13.3954C57.2636 12.907 57.1946 12.3489 57.1256 11.8605C57.0566 10.9535 57.0566 10.0465 57.1256 9.0698C58.5744 9.20934 60.0922 9.20934 61.5411 9.2791C62.9209 9.34887 64.3698 9.34887 65.7496 9.34887C65.7496 10.9535 65.7496 12.6279 65.6806 14.2326Z" fill="#372B7B"/>
<path d="M43.0512 41.721C42.4992 41.6512 42.0163 41.2326 41.9473 40.7442C41.8783 40.1861 42.3612 39.628 42.8442 39.6977C43.1202 39.6977 43.3271 39.8373 43.5341 39.9768C43.9481 40.1861 44.431 40.2559 44.845 40.1861C44.776 39.6977 44.431 39.3489 44.086 39.0001C43.7411 38.6512 43.5341 38.0931 43.7411 37.7442C43.9481 37.4652 44.293 37.3954 44.638 37.4652C44.9829 37.5349 45.2589 37.7442 45.5349 37.9535C46.0868 38.3024 46.6388 38.721 47.1907 39.0698C46.8457 39.2791 46.4318 39 46.0868 39.0698C45.6039 39.1396 45.3969 39.6977 45.3969 40.1163C45.3969 40.6047 45.6729 41.0233 45.8109 41.4419C45.8798 41.5814 45.8798 41.7907 45.8109 41.9303C45.7419 42.1396 45.4659 42.1396 45.3279 42.2791C45.1209 42.3489 44.9139 42.4884 44.9829 42.6977C44.9829 42.8373 45.1209 42.907 45.1899 42.9768C45.3969 43.1163 45.6039 43.3256 45.7419 43.5349C45.8798 43.7442 45.8798 44.0931 45.6729 44.3024C45.6039 44.3721 45.4659 44.4419 45.3279 44.5117C44.707 44.721 44.0171 44.5814 43.3961 44.2326C43.4651 43.6745 43.3961 43.0466 43.1202 42.4884L43.0512 41.721Z" fill="#E1E1FF"/>
</g>
<path d="M62.576 4.53489C63.6109 4.53489 64.6457 4.60466 65.6806 4.60466C66.0946 4.60466 66.6465 4.60466 66.8535 4.18606C67.0605 3.83722 66.8535 3.27908 66.4396 3.06978C66.0946 2.86047 65.6116 2.86047 65.1977 2.86047C63.5419 2.86047 61.8861 2.86047 60.2992 2.86047C59.2644 2.86047 58.1605 2.86047 57.1256 3.13954C56.8496 3.20931 56.6426 3.27908 56.4357 3.48838C56.2287 3.69768 56.2287 4.04652 56.3667 4.18606C56.5047 4.32559 56.6426 4.32559 56.7806 4.39536C58.0915 4.67443 59.4713 4.81396 60.8512 4.81396C60.8512 5.02326 60.7822 5.30233 60.7822 5.51164C61.4031 5.51164 62.024 5.51164 62.576 5.51164C62.576 5.23257 62.507 4.88373 62.576 4.53489Z" fill="#7777FF"/>
<path d="M61.3341 5.16278C61.3341 5.09301 61.2651 5.02324 61.1961 4.95348C61.5411 4.95348 61.955 4.95348 62.3 4.88371C62.3 4.95348 62.231 5.09301 62.231 5.16278C62.231 5.30231 62.162 5.37208 62.162 5.51162C62.369 5.51162 62.507 5.51162 62.714 5.51162C62.714 5.37208 62.714 5.30231 62.645 5.16278C62.645 5.09301 62.576 4.95348 62.576 4.88371C63.8178 4.81394 65.0597 4.74417 66.2326 4.53487C66.3016 4.53487 66.3016 4.53487 66.3705 4.53487C66.4395 4.53487 66.5085 4.53487 66.5775 4.53487C66.7155 4.53487 66.7845 4.39534 66.7845 4.2558C67.1295 3.97673 67.2674 3.55813 67.0605 3.13952C66.7155 2.58138 65.9566 2.65115 65.4047 2.65115C63.4729 2.72092 61.5411 2.79069 59.5403 2.86045C58.6434 2.93022 57.6775 2.93022 56.7806 2.99999C56.2287 3.06976 55.8147 3.41859 55.8837 4.0465C56.0217 4.74418 56.7116 4.95348 57.2636 4.95348C58.2295 5.02324 59.1264 4.95348 60.0923 4.95348C60.2992 4.95348 60.5062 4.95348 60.7132 4.95348C60.6442 5.02324 60.6442 5.09301 60.6442 5.16278C60.6442 5.30231 60.6442 5.37208 60.6442 5.51162C60.8512 5.51162 61.0581 5.51162 61.2651 5.51162C61.3341 5.37208 61.3341 5.30231 61.3341 5.16278ZM58.9194 4.32557C58.5054 4.32557 58.0225 4.32557 57.6085 4.32557C57.4016 4.32557 57.1946 4.32557 57.0566 4.2558C56.8496 4.18604 56.5047 3.90697 56.9186 3.76743C57.2636 3.6279 57.7465 3.69766 58.0915 3.69766C58.5054 3.69766 58.9194 3.6279 59.3333 3.6279C60.2302 3.55813 61.1271 3.48836 62.024 3.48836C62.8519 3.48836 63.6799 3.41859 64.5078 3.41859C64.9217 3.41859 65.3357 3.41859 65.7496 3.41859C66.0946 3.41859 66.8535 3.41859 66.2326 3.8372C64.6457 3.97673 63.1279 4.11627 61.5411 4.2558C60.6442 4.32557 59.8163 4.32557 58.9194 4.32557Z" fill="#372B7B"/>
</svg>
