<svg width="155" height="48" viewBox="0 0 155 48" fill="none" xmlns="http://www.w3.org/2000/svg">
<rect width="155" height="48" rx="8" fill="#4D79FF"/>
<path d="M40 23.5C40.0034 24.8199 39.6951 26.1219 39.1 27.3C38.3944 28.7117 37.3098 29.8992 35.9674 30.7293C34.6251 31.5594 33.0782 31.9994 31.5 32C30.1801 32.0034 28.8781 31.6951 27.7 31.1L23.8974 32.3675C23.1156 32.6281 22.3719 31.8844 22.6325 31.1026L23.9 27.3C23.3049 26.1219 22.9966 24.8199 23 23.5C23.0006 21.9218 23.4406 20.3749 24.2707 19.0326C25.1008 17.6903 26.2883 16.6056 27.7 15.9C28.8781 15.3049 30.1801 14.9966 31.5 15H32C34.0843 15.115 36.053 15.9948 37.5291 17.4709C39.0052 18.947 39.885 20.9157 40 23V23.5Z" fill="white"/>
<path d="M64.2 29.16C66.728 29.16 68.408 27.608 68.408 25.624C68.408 23.336 67.016 22.568 64.328 22.2C62.344 21.912 61.96 21.448 61.96 20.52C61.96 19.64 62.632 19.016 63.928 19.016C65.24 19.016 65.928 19.528 66.136 20.728H68.088C67.864 18.536 66.392 17.416 63.928 17.416C61.544 17.416 59.944 18.824 59.944 20.696C59.944 22.84 61.24 23.672 63.976 24.04C65.832 24.344 66.36 24.744 66.36 25.8C66.36 26.856 65.464 27.56 64.2 27.56C62.264 27.56 61.8 26.6 61.656 25.448H59.608C59.768 27.608 61.08 29.16 64.2 29.16ZM73.9883 29.16C76.1323 29.16 77.5563 28.2 77.8283 26.44H75.9563C75.8123 27.256 75.2043 27.72 74.0363 27.72C72.5963 27.72 71.7963 26.824 71.7323 25.24H77.8603V24.68C77.8603 21.688 75.9883 20.456 73.9083 20.456C71.5243 20.456 69.7483 22.184 69.7483 24.776V24.904C69.7483 27.544 71.5243 29.16 73.9883 29.16ZM71.7643 23.944C71.9563 22.648 72.7403 21.864 73.9083 21.864C75.1083 21.864 75.8443 22.504 75.9403 23.944H71.7643ZM79.5895 29H81.5255V24.072C81.5255 22.744 82.4055 22.072 83.4935 22.072C84.6455 22.072 85.1575 22.648 85.1575 23.912V29H87.0935V23.736C87.0935 21.432 85.9095 20.456 84.2295 20.456C82.8535 20.456 81.9255 21.144 81.5255 21.96V20.632H79.5895V29ZM92.4599 29.16C93.6919 29.16 94.7639 28.424 95.2119 27.592V29H97.1479V16.76H95.2119V21.912C94.7479 21.08 93.8999 20.456 92.5399 20.456C90.3639 20.456 88.7799 22.152 88.7799 24.824V24.952C88.7799 27.672 90.3639 29.16 92.4599 29.16ZM92.9399 27.624C91.6919 27.624 90.7639 26.744 90.7639 24.904V24.776C90.7639 22.968 91.5959 21.976 93.0199 21.976C94.4279 21.976 95.2759 22.888 95.2759 24.728V24.856C95.2759 26.728 94.2839 27.624 92.9399 27.624ZM107.309 29.16C109.837 29.16 111.517 27.608 111.517 25.624C111.517 23.336 110.125 22.568 107.437 22.2C105.453 21.912 105.069 21.448 105.069 20.52C105.069 19.64 105.741 19.016 107.037 19.016C108.349 19.016 109.037 19.528 109.245 20.728H111.197C110.973 18.536 109.501 17.416 107.037 17.416C104.653 17.416 103.053 18.824 103.053 20.696C103.053 22.84 104.349 23.672 107.085 24.04C108.941 24.344 109.469 24.744 109.469 25.8C109.469 26.856 108.573 27.56 107.309 27.56C105.373 27.56 104.909 26.6 104.765 25.448H102.717C102.877 27.608 104.189 29.16 107.309 29.16ZM113.578 29H115.498V20.36L118.97 29H119.658L123.066 20.36V29H125.194V17.56H122.378L119.434 25.368L116.426 17.56H113.578V29ZM131.7 29.16C134.228 29.16 135.908 27.608 135.908 25.624C135.908 23.336 134.516 22.568 131.828 22.2C129.844 21.912 129.46 21.448 129.46 20.52C129.46 19.64 130.132 19.016 131.428 19.016C132.74 19.016 133.428 19.528 133.636 20.728H135.588C135.364 18.536 133.892 17.416 131.428 17.416C129.044 17.416 127.444 18.824 127.444 20.696C127.444 22.84 128.74 23.672 131.476 24.04C133.332 24.344 133.86 24.744 133.86 25.8C133.86 26.856 132.964 27.56 131.7 27.56C129.764 27.56 129.3 26.6 129.156 25.448H127.108C127.268 27.608 128.58 29.16 131.7 29.16Z" fill="white"/>
</svg>
